<svg width="25" height="25" viewBox="0 0 25 25" fill="none" xmlns="http://www.w3.org/2000/svg">
<path d="M9.13373 18.2156V11.1056C9.13373 11.1056 3.59082 7.14598 3.59082 4.44314C3.59082 1.74029 6.77205 1.03445 6.77205 1.03445H12.5441" stroke="#27C100" stroke-width="1.8" stroke-miterlimit="10"/>
<path d="M15.8926 18.2156V11.1055C15.8926 11.1055 21.4443 7.14596 21.4443 4.44311C21.4443 1.74027 18.2631 1 18.2631 1H12.5439" stroke="#27C100" stroke-width="1.8" stroke-miterlimit="10"/>
<path d="M12.5441 24H1V13.817C1.05726 12.4947 1.57224 11.2306 2.4607 10.2314C3.34915 9.2322 4.55847 8.55713 5.8908 8.31662" stroke="#27C100" stroke-width="1.8" stroke-miterlimit="10"/>
<path d="M12.5439 24H23.9999V13.817C23.9426 12.4947 23.4276 11.2306 22.5392 10.2314C21.6507 9.2322 20.4414 8.55713 19.1091 8.31662" stroke="#27C100" stroke-width="1.8" stroke-miterlimit="10"/>
</svg>
