<svg width="25" height="25" viewBox="0 0 25 25" fill="none" xmlns="http://www.w3.org/2000/svg">
<path d="M5.99585 23.9363H10.9797V22.5751C10.9797 22.5751 11.307 19.9881 5.99585 19.9881" stroke="#27C100" stroke-width="1.8" stroke-miterlimit="10"/>
<path d="M5.99596 23.9363H1.00393V22.5751C1.00393 22.5751 0.676585 19.9562 5.99596 19.9562" stroke="#27C100" stroke-width="1.8" stroke-miterlimit="10"/>
<path d="M5.84033 17.2657C6.95218 17.2657 7.85351 16.389 7.85351 15.3075C7.85351 14.226 6.95218 13.3493 5.84033 13.3493C4.72848 13.3493 3.82715 14.226 3.82715 15.3075C3.82715 16.389 4.72848 17.2657 5.84033 17.2657Z" stroke="#27C100" stroke-width="1.8" stroke-miterlimit="10"/>
<path d="M18.738 24H23.7219V22.5751C23.7219 22.5751 24.0492 19.9881 18.738 19.9881" stroke="#27C100" stroke-width="1.8" stroke-miterlimit="10"/>
<path d="M18.7379 24H13.7623V22.5751C13.7623 22.5751 13.4349 19.9881 18.7379 19.9881" stroke="#27C100" stroke-width="1.8" stroke-miterlimit="10"/>
<path d="M18.5906 17.3294C19.7024 17.3294 20.6038 16.4526 20.6038 15.3712C20.6038 14.2897 19.7024 13.413 18.5906 13.413C17.4787 13.413 16.5774 14.2897 16.5774 15.3712C16.5774 16.4526 17.4787 17.3294 18.5906 17.3294Z" stroke="#27C100" stroke-width="1.8" stroke-miterlimit="10"/>
<path d="M19.5728 10.802V8.66871C19.5728 8.66871 24.0001 9.24981 24.0001 5.52445C24.0001 1.79909 20.4811 2.04586 19.5728 2.04586C18.6644 2.04586 14.3188 1.87869 14.3188 5.06276C14.3188 8.24683 19.5728 10.802 19.5728 10.802Z" stroke="#27C100" stroke-width="1.8" stroke-miterlimit="10"/>
<path d="M5.99608 9.76722V7.6339C5.99608 7.6339 1.5769 8.21499 1.5769 4.48964C1.5769 0.764279 5.07132 1.00308 5.99608 1.00308C6.92083 1.00308 11.2336 0.83592 11.2336 4.01203C11.2336 7.18813 5.99608 9.76722 5.99608 9.76722Z" stroke="#27C100" stroke-width="1.8" stroke-miterlimit="10"/>
</svg>
