<svg width="25" height="22" viewBox="0 0 25 22" fill="none" xmlns="http://www.w3.org/2000/svg">
<path d="M12.5002 15.4045H9.60268C9.36455 15.4082 9.1299 15.4612 8.91417 15.5602C8.69844 15.6592 8.50652 15.8018 8.35101 15.9788C8.19551 16.1557 8.07995 16.3629 8.01193 16.5868C7.94391 16.8107 7.92498 17.0462 7.95638 17.2777C7.95638 19.1833 9.01824 21 12.5249 21" stroke="#27C100" stroke-width="1.8" stroke-miterlimit="10"/>
<path d="M12.5001 15.4045H15.4058C15.6461 15.4015 15.8841 15.4501 16.1032 15.5469C16.3223 15.6437 16.5171 15.7863 16.674 15.9648C16.8309 16.1434 16.946 16.3534 17.0114 16.5802C17.0767 16.807 17.0906 17.0451 17.0521 17.2778C17.0521 19.1833 15.9985 21 12.4836 21" stroke="#27C100" stroke-width="1.8" stroke-miterlimit="10"/>
<path d="M12.4999 12.1344C13.9319 12.1344 15.0928 10.9957 15.0928 9.59104C15.0928 8.18636 13.9319 7.04764 12.4999 7.04764C11.0679 7.04764 9.90698 8.18636 9.90698 9.59104C9.90698 10.9957 11.0679 12.1344 12.4999 12.1344Z" stroke="#27C100" stroke-width="1.8" stroke-miterlimit="10"/>
<path d="M19.2912 6.0868C20.7232 6.0868 21.8841 4.94808 21.8841 3.5434C21.8841 2.13872 20.7232 1 19.2912 1C17.8591 1 16.6982 2.13872 16.6982 3.5434C16.6982 4.94808 17.8591 6.0868 19.2912 6.0868Z" stroke="#27C100" stroke-width="1.8" stroke-miterlimit="10"/>
<path d="M5.7089 6.0868C7.14093 6.0868 8.30183 4.94808 8.30183 3.5434C8.30183 2.13872 7.14093 1 5.7089 1C4.27686 1 3.11597 2.13872 3.11597 3.5434C3.11597 4.94808 4.27686 6.0868 5.7089 6.0868Z" stroke="#27C100" stroke-width="1.8" stroke-miterlimit="10"/>
<path d="M17.439 9.32457H22.3779C22.5823 9.3039 22.7889 9.32613 22.9839 9.38978C23.1788 9.45343 23.3578 9.55704 23.5088 9.69374C23.6599 9.83043 23.7795 9.99708 23.8599 10.1826C23.9402 10.3682 23.9794 10.5683 23.9748 10.7699C23.9748 12.3121 24.6662 14.4356 18.8136 14.807" stroke="#27C100" stroke-width="1.8" stroke-miterlimit="10"/>
<path d="M7.56109 9.32457H2.62217C2.41775 9.3039 2.21119 9.32613 2.0162 9.38978C1.82121 9.45343 1.64225 9.55704 1.49122 9.69374C1.34018 9.83043 1.22052 9.99708 1.14019 10.1826C1.05985 10.3682 1.02067 10.5683 1.02526 10.7699C1.02526 12.3121 0.33381 14.4356 6.18642 14.807" stroke="#27C100" stroke-width="1.8" stroke-miterlimit="10"/>
</svg>
