<svg width="184" height="13" viewBox="0 0 184 13" fill="none" xmlns="http://www.w3.org/2000/svg">
<g opacity="0.8">
<path d="M10.584 12L10.568 5.296L7.272 10.816H6.12L2.824 5.424V12H0.392V0.799999H2.536L6.728 7.76L10.856 0.799999H13L13.016 12H10.584ZM24.0223 9.6H18.8222L17.8302 12H15.1742L20.1662 0.799999H22.7262L27.7343 12H25.0142L24.0223 9.6ZM23.2063 7.632L21.4302 3.344L19.6542 7.632H23.2063ZM34.1955 7.488H32.4035V12H29.8275V0.799999H32.4035V5.328H34.2595L37.2035 0.799999H39.9395L36.2755 6.208L40.0515 12H37.1075L34.1955 7.488ZM47.1549 12.192C46.0135 12.192 44.9789 11.9467 44.0509 11.456C43.1335 10.9547 42.4082 10.2667 41.8749 9.392C41.3522 8.50667 41.0909 7.50933 41.0909 6.4C41.0909 5.29067 41.3522 4.29867 41.8749 3.424C42.4082 2.53867 43.1335 1.85067 44.0509 1.36C44.9789 0.858666 46.0189 0.608 47.1709 0.608C48.1415 0.608 49.0162 0.778666 49.7949 1.12C50.5842 1.46133 51.2455 1.952 51.7789 2.592L50.1149 4.128C49.3575 3.25333 48.4189 2.816 47.2989 2.816C46.6055 2.816 45.9869 2.97067 45.4429 3.28C44.8989 3.57867 44.4722 4 44.1629 4.544C43.8642 5.088 43.7149 5.70667 43.7149 6.4C43.7149 7.09333 43.8642 7.712 44.1629 8.256C44.4722 8.8 44.8989 9.22667 45.4429 9.536C45.9869 9.83467 46.6055 9.984 47.2989 9.984C48.4189 9.984 49.3575 9.54133 50.1149 8.656L51.7789 10.192C51.2455 10.8427 50.5842 11.3387 49.7949 11.68C49.0055 12.0213 48.1255 12.192 47.1549 12.192ZM54.1083 0.799999H56.6843V8.096L62.0283 0.799999H64.4603V12H61.9003V4.72L56.5563 12H54.1083V0.799999ZM78.0809 12L78.0649 5.296L74.7689 10.816H73.6169L70.3209 5.424V12H67.8889V0.799999H70.0329L74.2249 7.76L78.3529 0.799999H80.4969L80.5129 12H78.0809Z" fill="#F6FFF3"/>
<path d="M96.6904 9.6H91.4904L90.4984 12H87.8424L92.8344 0.799999H95.3944L100.402 12H97.6824L96.6904 9.6ZM95.8744 7.632L94.0984 3.344L92.3224 7.632H95.8744ZM112.605 0.799999V12H110.045V2.912H106.205L106.125 5.248C106.072 6.83733 105.944 8.128 105.741 9.12C105.539 10.1013 105.197 10.8587 104.717 11.392C104.248 11.9147 103.587 12.176 102.733 12.176C102.381 12.176 101.955 12.1173 101.453 12L101.613 9.808C101.752 9.85067 101.907 9.872 102.077 9.872C102.696 9.872 103.128 9.50933 103.373 8.784C103.619 8.048 103.773 6.90133 103.837 5.344L103.997 0.799999H112.605ZM123.627 9.6H118.427L117.435 12H114.779L119.771 0.799999H122.331L127.339 12H124.619L123.627 9.6ZM122.811 7.632L121.035 3.344L119.259 7.632H122.811ZM133.8 7.488H132.008V12H129.432V0.799999H132.008V5.328H133.864L136.808 0.799999H139.544L135.88 6.208L139.656 12H136.712L133.8 7.488ZM156.294 0.799999V12H141.51V0.799999H144.086V9.888H147.622V0.799999H150.198V9.888H153.718V0.799999H156.294ZM159.713 0.799999H162.289V8.096L167.633 0.799999H170.065V12H167.505V4.72L162.161 12H159.713V0.799999ZM183.765 0.799999V12H181.173V7.408H176.085V12H173.493V0.799999H176.085V5.216H181.173V0.799999H183.765Z" fill="#27C100"/>
</g>
</svg>
